<?xml version="1.0" encoding="UTF-8"?>
<svg width="317px" height="186px" viewBox="0 0 317 186" version="1.1" xmlns="http://www.w3.org/2000/svg" xmlns:xlink="http://www.w3.org/1999/xlink">
    <!-- Generator: Sketch 49 (51002) - http://www.bohemiancoding.com/sketch -->
    <title>Group Copy</title>
    <desc>Created with Sketch.</desc>
    <defs></defs>
    <g id="Page-1" stroke="none" stroke-width="1" fill="none" fill-rule="evenodd">
        <g id="Group-Copy" transform="translate(-0.428627, 0.439546)">
            <polygon id="Page-1-Copy" fill="#475993" points="306.571206 0.125863736 305.248513 0.222667602 303.940781 0.688206193 302.710492 0.408355018 300.609848 0.440036283 219.76095 7.06142071 199.961039 8.52579919 198.755391 8.61292267 184.760192 9.63024329 169.099967 10.7672487 167.870558 10.8570123 156.931721 11.651684 155.858078 12.1049021 153.635989 11.901614 151.692872 12.2800291 142.287056 12.9690966 140.542826 13.4179146 139.300217 13.2577482 137.810317 13.4249548 135.771276 13.1996658 128.498665 14.1069821 127.267496 13.8315311 125.86824 14.4229147 123.203494 14.3736327 120.644352 14.5610802 117.813279 14.6358832 116.452744 14.8682125 113.125331 15.1119822 110.364661 15.483357 109.070129 15.5951215 106.107931 15.381273 103.041889 15.5960015 97.5478293 16.3651523 93.2259767 16.6819649 92.0370493 16.7127661 90.8067601 16.4918773 89.30102 16.7858091 88.149054 16.8157302 85.6277533 17.2469475 83.9864878 17.2372671 81.3270216 17.5408792 79.4367061 17.5699204 73.375904 17.7740885 67.9944891 18.5282786 65.6685562 18.6981254 64.4373871 18.4235545 63.3663843 18.8750125 61.1416555 18.6708443 59.1818172 19.0527796 49.7936023 19.7409671 47.4421484 20.040179 45.3159835 20.1977053 43.2778221 19.9724163 40.0278523 20.5840407 38.794043 20.3077097 37.3868668 20.9026135 34.7309207 20.8489313 28.1139365 21.3329506 25.3198249 21.4077536 22.7994043 21.8372108 21.5039925 21.81873 20.3625869 21.768568 19.087416 22.017618 17.9512906 21.917294 16.7738036 22.3643518 11.7875245 22.3652319 9.18702065 22.5561995 5.05261554 23.1352626 2.62987879 23.2135857 1.55359581 23.7328065 0.932290994 24.5160378 0.523074652 25.8668917 0.529234898 31.5642392 1.20246178 43.6928836 1.63895921 46.8689304 1.09861764 48.6580419 0.984213068 50.6073197 1.08541711 51.8728102 1.56679633 53.0159759 1.35030769 54.6299604 1.47263257 55.9095315 2.10361777 62.4904343 2.5700364 74.5398755 3.33214683 80.1500995 3.34006715 88.0387345 3.94553133 98.6519584 4.33626693 101.523513 4.44979147 102.999332 4.34330721 109.067174 2.9748648 88.4937861 3.70793407 93.8285591 3.50816609 94.8326792 3.43248307 96.1219307 3.3656004 97.255416 3.68945333 99.0462875 3.77041657 100.483385 3.61553038 101.630951 3.76777646 102.379861 4.22803484 108.482024 4.58708918 114.795396 4.32483871 116.019525 4.45068373 118.229294 5.07286858 124.723073 5.27351659 126.811396 5.74169529 135.012444 6.00834594 141.661989 6.77133641 147.272213 6.77925672 155.160848 6.99838547 159.003082 7.45248361 166.943639 7.42080234 168.304173 7.74377524 169.074204 7.95322361 170.589625 7.67161236 172.681468 7.82209837 173.432138 7.89602132 174.414257 8.28235675 179.534302 8.62821056 185.606544 10.0987493 183.48566 10.943583 182.808033 12.7643757 179.837914 16.2572352 175.026762 23.0053447 165.281253 28.8786993 157.251812 30.4046802 156.543384 31.9192207 156.371777 35.4191205 156.19401 36.7646942 156.264413 38.639169 156.367377 39.8254564 155.790954 42.9223001 155.806794 45.9355404 155.486461 47.1235879 155.509342 49.4908824 155.168769 51.8660973 155.399338 53.2697533 154.805314 54.6003665 154.810594 55.9538605 155.109806 58.1513083 154.351216 60.5634846 154.638108 61.6212868 154.340656 62.9659805 154.285213 68.2831529 153.95696 69.2335908 153.556544 70.3793966 153.803834 80.3070731 153.325095 81.5972046 153.224771 82.9744596 152.748672 88.820533 152.45298 93.9264969 152.077205 95.7217686 151.730471 99.5156001 151.752472 100.957978 151.68295 105.952177 151.44182 107.26871 150.638348 108.650365 150.875077 113.210707 150.663869 114.695326 150.809075 117.588882 150.221211 119.198466 150.233532 120.404114 149.892078 121.842092 150.036404 123.392714 150.046084 125.235507 149.789994 127.112622 149.892958 128.29979 149.309495 131.395753 149.331496 134.379072 149.007643 135.596161 149.033164 137.967856 148.69083 140.33779 148.922279 141.742326 148.327376 143.032458 148.336176 144.427314 148.632748 146.617721 147.875037 149.036058 148.158409 150.899092 147.663829 152.364351 148.051925 154.86365 147.729832 156.10186 147.569665 157.516956 147.163089 158.85109 147.330296 162.338669 147.162209 164.085539 146.863877 167.237825 146.92548 168.781406 146.851557 169.863849 146.18889 171.013175 146.107927 173.37607 146.266333 174.673242 146.209131 177.808807 145.94336 178.931732 145.808715 180.88893 145.571105 182.373549 145.828076 186.419071 145.307095 188.345468 145.041324 189.941851 145.302695 191.547035 145.003483 198.444751 144.67083 200.272584 144.050405 203.167019 144.330256 204.138578 143.92016 206.538434 143.748553 207.922729 143.649989 209.072935 143.164209 210.096416 143.495103 212.652038 143.312935 214.149858 142.829796 217.183339 142.989962 218.412748 142.901959 222.772442 142.157449 227.539593 142.251613 228.778682 142.162729 233.359265 141.502703 235.796082 141.569586 237.937208 141.510623 239.633916 140.92716 241.857765 141.229892 243.394306 140.895479 249.279101 140.701871 250.651956 140.120168 261.707837 139.815676 262.674116 139.225172 313.768145 135.012444 315.438452 134.472102 316.535856 132.41634 316.256005 130.586747 316.280646 129.112688 315.793986 126.310656 315.89607 124.206492 315.741184 121.507424 315.896951 118.414981 315.653181 116.64083 315.605659 115.279416 315.310847 113.865199 315.233404 111.907121 315.531736 111.044687 315.699823 110.009765 315.581898 107.954003 314.987874 105.289257 315.236924 103.910242 314.64466 99.2733366 314.88667 97.7737567 314.409691 89.4257433 314.245125 85.0871701 313.984634 83.9176033 314.164161 82.9258037 314.116639 81.704315 313.64054 77.9016831 313.822708 76.7708379 313.445173 74.4563455 313.469814 72.9822866 312.983154 70.1802547 313.085238 68.0760907 312.930352 65.3770229 313.086118 62.2845794 312.842349 60.5095485 312.794827 59.1490142 312.500015 57.7347977 312.422572 55.7767195 312.721784 54.9134051 312.441933 53.083812 312.466574 51.6097531 311.979034 48.8086013 312.081118 46.7044372 311.927112 44.0053695 312.081998 40.912926 311.838228 39.1387751 311.791587 37.7764807 311.495895 36.3613842 311.419332 34.404186 313.278834 60.7673254 312.956741 55.1280602 312.906579 54.2612256 312.815935 52.6754023 312.224552 50.0088958 312.472722 48.6272406 311.880458 43.9929756 312.122468 42.4925156 311.648129 34.1462623 311.344516 26.1485029 311.211631 25.3802323 311.269713 24.1701839 311.223072 22.9328545 311.060265 21.6585636 310.68449 19.1759845 310.707371 17.6984055 310.218952 14.8981337 310.321036 12.7922096 310.166149 10.0940218 310.327196 7.00245835 309.949661 4.27610948 309.821176 0.565881308"></polygon>
            <text id="Besoin-d’aide-pour-c" transform="translate(164.842014, 58.663179) rotate(-4.000000) translate(-164.842014, -58.663179) " font-family="KGSecondChancesSolid, KG Second Chances Solid" font-size="16" font-style="condensed" font-weight="normal" fill="#FFFFFF">
                <tspan x="46.4087325" y="51.6631787">Besoin d’aide pour choisir </tspan>
                <tspan x="46.4087325" y="75.6631787">votre configuration ?</tspan>
            </text>
            <text id="CONTACTEZ-NOUS-!" transform="translate(157.498050, 105.158785) rotate(-4.000000) translate(-157.498050, -105.158785) " font-family="KGSecondChancesSolid, KG Second Chances Solid" font-size="22" font-style="condensed" font-weight="normal" fill="#FFFFFF">
                <tspan x="48.1801789" y="111.158785">CONTACTEZ-NOUS !</tspan>
            </text>
        </g>
    </g>
</svg>