<?xml version="1.0" encoding="UTF-8"?>
<svg width="91px" height="84px" viewBox="0 0 91 84" version="1.1" xmlns="http://www.w3.org/2000/svg" xmlns:xlink="http://www.w3.org/1999/xlink">
    <!-- Generator: Sketch 49 (51002) - http://www.bohemiancoding.com/sketch -->
    <title>download</title>
    <desc>Created with Sketch.</desc>
    <defs></defs>
    <g id="Page-1" stroke="none" stroke-width="1" fill="none" fill-rule="evenodd">
        <g id="download" fill="#004994" fill-rule="nonzero">
            <path d="M41.2,68.6 C41.9,69.3 42.7,70 43.4,70.7 C44.3,71.5 45.7,71.6 46.6,70.7 C51.8,65.9 56.9,61.1 62.1,56.4 C62.8,55.7 63.6,55 64.3,54.3 C66.4,52.3 63.2,49.2 61.1,51.1 C56.5,55.4 51.8,59.7 47.2,64 C47.2,57.4 47.2,50.8 47.2,44.2 C47.2,33 47.2,21.9 47.2,10.7 C47.2,8.1 47.2,5.6 47.2,3 C47.2,0.1 42.7,0.1 42.7,3 C42.7,10.1 42.7,17.1 42.7,24.2 C42.7,35.4 42.7,46.5 42.7,57.7 C42.7,59.8 42.7,61.9 42.7,64 C38.8,60.4 34.9,56.8 31,53.2 C30.3,52.5 29.5,51.8 28.8,51.1 C26.7,49.1 23.5,52.3 25.6,54.3 C30.9,59.1 36,63.8 41.2,68.6 Z" id="Shape"></path>
            <path d="M85.5,60.7 C85.5,64.8 85.5,68.9 85.5,73 C85.5,73.8 85.5,74.7 85.5,75.5 C85.5,76.3 85.5,76.9 85.2,77.5 C84.5,78.8 83.5,79.2 82,79.2 C75.6,79.2 69.2,79.2 62.8,79.2 C52.2,79.2 41.5,79.2 30.9,79.2 C23.6,79.2 16.3,79.2 9,79.2 C8.6,79.2 8.1,79.2 7.7,79.2 C6.4,79.2 5.3,78.5 4.8,77.3 C4.6,76.8 4.6,76.2 4.6,75.5 C4.6,71 4.6,66.5 4.6,61.9 C4.6,61.5 4.6,61.1 4.6,60.6 C4.6,57.7 0.1,57.7 0.1,60.6 C0.1,64.8 0.1,69.1 0.1,73.3 C0.1,75.4 4.30211422e-16,77.6 1,79.6 C2.4,82.2 5.1,83.6 7.9,83.7 C14.2,83.7 20.5,83.7 26.8,83.7 C37.7,83.7 48.7,83.7 59.6,83.7 C66.9,83.7 74.2,83.7 81.5,83.7 C82.5,83.7 83.4,83.7 84.4,83.4 C87.9,82.5 90.1,79.2 90.1,75.7 C90.1,71.1 90.1,66.6 90.1,62 C90.1,61.6 90.1,61.1 90.1,60.7 C90,57.8 85.5,57.8 85.5,60.7 Z" id="Shape"></path>
        </g>
    </g>
</svg>