<?xml version="1.0" encoding="UTF-8"?>
<svg width="91px" height="84px" viewBox="0 0 91 84" version="1.1" xmlns="http://www.w3.org/2000/svg" xmlns:xlink="http://www.w3.org/1999/xlink">
    <!-- Generator: Sketch 49 (51002) - http://www.bohemiancoding.com/sketch -->
    <title>upload</title>
    <desc>Created with Sketch.</desc>
    <defs></defs>
    <g id="Page-1" stroke="none" stroke-width="1" fill="none" fill-rule="evenodd">
        <g id="upload" transform="translate(0.513468, 0.000000)" fill="#004994" fill-rule="nonzero">
            <path d="M29,21 C33.6,16.7 38.2,12.5 42.9,8.2 C42.9,14.8 42.9,21.4 42.9,27.9 C42.9,39 42.9,50.2 42.9,61.3 C42.9,63.9 42.9,66.4 42.9,69 C42.9,71.9 47.4,71.9 47.4,69 C47.4,62 47.4,54.9 47.4,47.9 C47.4,36.8 47.4,25.6 47.4,14.5 C47.4,12.4 47.4,10.3 47.4,8.2 C51.3,11.8 55.2,15.4 59.1,19 C59.8,19.7 60.6,20.4 61.3,21 C63.4,23 66.6,19.8 64.5,17.8 C59.3,13 54.2,8.3 49,3.5 C48.3,2.8 47.5,2.1 46.8,1.5 C45.9,0.7 44.5,0.6 43.6,1.5 C38.4,6.3 33.3,11 28.1,15.8 C27.4,16.5 26.6,17.2 25.9,17.8 C23.7,19.8 26.9,23 29,21 Z" id="Shape"></path>
            <path d="M85.5,60.7 C85.5,64.8 85.5,68.9 85.5,73 C85.5,73.8 85.5,74.7 85.5,75.5 C85.5,76.3 85.5,76.9 85.2,77.5 C84.5,78.8 83.5,79.2 82,79.2 C75.6,79.2 69.2,79.2 62.8,79.2 C52.2,79.2 41.6,79.2 31,79.2 C23.7,79.2 16.4,79.2 9.1,79.2 C8.7,79.2 8.2,79.2 7.8,79.2 C6.6,79.2 5.4,78.5 4.9,77.3 C4.7,76.9 4.7,76.2 4.7,75.5 C4.7,71 4.7,66.5 4.7,62 C4.7,61.6 4.7,61.2 4.7,60.8 C4.7,57.9 0.2,57.9 0.2,60.8 C0.2,65 0.2,69.3 0.2,73.5 C0.2,75.6 0.1,77.8 1.1,79.7 C2.5,82.3 5.1,83.7 8,83.7 C14.3,83.7 20.6,83.7 26.9,83.7 C37.8,83.7 48.7,83.7 59.6,83.7 C66.9,83.7 74.2,83.7 81.5,83.7 C82.5,83.7 83.4,83.7 84.3,83.4 C87.8,82.5 90,79.2 90,75.7 C90,71.1 90,66.6 90,62 C90,61.6 90,61.1 90,60.7 C90,57.8 85.5,57.8 85.5,60.7 Z" id="Shape"></path>
        </g>
    </g>
</svg>